<svg width="48" height="72" viewBox="0 0 48 72" fill="none" xmlns="http://www.w3.org/2000/svg">
<g id="Group 3045">
<g id="Group">
<path id="Vector" d="M24.9034 54.9225L14.0564 22.3307H24.9034L35.7518 54.9225H24.9034Z" fill="#8596A6"/>
<path id="Vector_2" d="M19.7816 19.0112C22.9854 19.0112 25.5827 16.4102 25.5827 13.2017C25.5827 9.99329 22.9854 7.39233 19.7816 7.39233C16.5777 7.39233 13.9805 9.99329 13.9805 13.2017C13.9805 16.4102 16.5777 19.0112 19.7816 19.0112Z" fill="#8596A6"/>
<path id="Vector_3" d="M38.2379 12.6751C41.733 12.6751 44.5664 9.83766 44.5664 6.33754C44.5664 2.83741 41.733 0 38.2379 0C34.7428 0 31.9094 2.83741 31.9094 6.33754C31.9094 9.83766 34.7428 12.6751 38.2379 12.6751Z" fill="#8ACC60"/>
<path id="Vector_4" d="M3.20801 54.9225H14.0564L24.9034 22.3307H14.0564L3.20801 54.9225Z" fill="#8ACC60"/>
<path id="Vector_5" d="M24.9033 54.9225H35.7517L44.9041 27.4246L37.5603 16.8987L24.9033 54.9225Z" fill="#8ACC60"/>
</g>
<g id="Group_2">
<path id="Vector_6" d="M5.14088 65.7807H3.82737V71.8845H1.38599V65.7807H0.5V63.6978H1.38599V63.4626C1.38599 62.4557 1.66725 61.6895 2.22838 61.167C2.7895 60.6445 3.61361 60.3826 4.69929 60.3826C4.88071 60.3826 5.01291 60.3882 5.09869 60.3967V62.5247C4.63179 62.4951 4.30412 62.5641 4.11286 62.7303C3.923 62.8965 3.82737 63.195 3.82737 63.6246V63.6978H5.14088V65.7807Z" fill="#8ACC60"/>
<path id="Vector_7" d="M6.46283 62.4586C6.1914 62.1995 6.0564 61.8784 6.0564 61.4981C6.0564 61.1066 6.1914 60.7813 6.46283 60.5221C6.73425 60.263 7.08442 60.1334 7.51195 60.1334C7.93103 60.1334 8.27558 60.263 8.547 60.5221C8.81842 60.7813 8.95343 61.1066 8.95343 61.4981C8.95343 61.8798 8.81842 62.1995 8.547 62.4586C8.27558 62.7177 7.93103 62.8473 7.51195 62.8473C7.08302 62.8473 6.73284 62.7177 6.46283 62.4586ZM8.72561 63.6979V71.8846H6.28422V63.6979H8.72561Z" fill="#8ACC60"/>
<path id="Vector_8" d="M17.587 64.5414C18.1439 65.1625 18.4224 66.0159 18.4224 67.1018V71.8845H15.9951V67.4383C15.9951 66.8905 15.8573 66.4652 15.5802 66.1624C15.3046 65.8596 14.9333 65.7075 14.4664 65.7075C13.9995 65.7075 13.6282 65.8596 13.3526 66.1624C13.0769 66.4652 12.9391 66.8905 12.9391 67.4383V71.8845H10.4963V63.6978H12.9391V64.7836C13.1866 64.4217 13.5199 64.1358 13.939 63.9259C14.3581 63.7161 14.8292 63.6105 15.3524 63.6105C16.2848 63.6105 17.0301 63.9203 17.587 64.5414Z" fill="#8ACC60"/>
<path id="Vector_9" d="M20.0998 65.5611C20.4092 64.926 20.8311 64.4359 21.3641 64.0936C21.8971 63.7514 22.492 63.5796 23.1487 63.5796C23.7099 63.5796 24.2035 63.6965 24.6268 63.9317C25.0501 64.1669 25.3764 64.4739 25.6056 64.8555V63.6965H28.0484V71.8832H25.6056V70.7241C25.3679 71.1058 25.036 71.4142 24.6127 71.648C24.1894 71.8832 23.6958 72.0001 23.1347 72.0001C22.4878 72.0001 21.8971 71.8268 21.3641 71.479C20.8311 71.1325 20.4092 70.6382 20.0998 69.9974C19.7904 69.3566 19.6357 68.6158 19.6357 67.775C19.6357 66.9357 19.7904 66.1977 20.0998 65.5611ZM25.0993 66.309C24.7618 65.947 24.3498 65.7667 23.8646 65.7667C23.3794 65.7667 22.9673 65.9456 22.6298 66.3019C22.2923 66.6596 22.1235 67.1511 22.1235 67.7764C22.1235 68.4032 22.2923 68.8989 22.6298 69.2651C22.9673 69.6312 23.3794 69.8157 23.8646 69.8157C24.3498 69.8157 24.7618 69.6355 25.0993 69.2735C25.4368 68.9116 25.6056 68.4172 25.6056 67.7919C25.6056 67.1652 25.4368 66.6709 25.0993 66.309Z" fill="#8596A6"/>
<path id="Vector_10" d="M42.3508 64.5344C42.9358 65.1513 43.2298 66.0061 43.2298 67.1018V71.8845H40.8024V67.4384C40.8024 66.9103 40.6674 66.5019 40.396 66.2132C40.1246 65.9244 39.7505 65.7808 39.2752 65.7808C38.7984 65.7808 38.4257 65.9259 38.1543 66.2132C37.8829 66.5019 37.7479 66.9103 37.7479 67.4384V71.8845H35.3206V67.4384C35.3206 66.9103 35.1856 66.5019 34.9141 66.2132C34.6427 65.9244 34.2686 65.7808 33.7933 65.7808C33.3166 65.7808 32.9439 65.9259 32.6725 66.2132C32.401 66.5019 32.266 66.9103 32.266 67.4384V71.8845H29.8232V63.6979H32.266V64.7245C32.5135 64.3823 32.837 64.1105 33.2378 63.9105C33.6372 63.7105 34.09 63.6091 34.5949 63.6091C35.1954 63.6091 35.7298 63.7415 36.2009 64.0049C36.6721 64.2696 37.0405 64.6457 37.3077 65.1344C37.5834 64.6851 37.9603 64.3175 38.4356 64.0345C38.9109 63.7514 39.4299 63.6091 39.9924 63.6091C40.9768 63.6105 41.7644 63.9176 42.3508 64.5344Z" fill="#8596A6"/>
<path id="Vector_11" d="M45.1213 62.4586C44.8499 62.1995 44.7148 61.8784 44.7148 61.4981C44.7148 61.1066 44.8499 60.7813 45.1213 60.5221C45.3927 60.263 45.7429 60.1334 46.1704 60.1334C46.5895 60.1334 46.934 60.263 47.2054 60.5221C47.4769 60.7813 47.6119 61.1066 47.6119 61.4981C47.6119 61.8798 47.4769 62.1995 47.2054 62.4586C46.934 62.7177 46.5895 62.8473 46.1704 62.8473C45.7429 62.8473 45.3927 62.7177 45.1213 62.4586ZM47.3841 63.6979V71.8846H44.9413V63.6979H47.3841Z" fill="#8596A6"/>
</g>
</g>
</svg>
