<svg xmlns="http://www.w3.org/2000/svg" version="1.1" xmlns:xlink="http://www.w3.org/1999/xlink" xmlns:svgjs="http://svgjs.com/svgjs" width="1440" height="300" preserveAspectRatio="none" viewBox="0 0 1440 300"><g mask="url(&quot;#SvgjsMask1053&quot;)" fill="none"><path d="M -283.1683431744934,223 C -225.57,197 -110.37,96.8 4.831656825506602,93 C 120.03,89.2 177.63,206.8 292.8316568255066,204 C 408.03,201.2 465.63,82 580.8316568255066,79 C 696.03,76 753.63,190 868.8316568255066,189 C 984.03,188 1041.63,73.2 1156.8316568255066,74 C 1272.03,74.8 1388.2,180.2 1444.8316568255066,193 C 1501.47,205.8 1440.97,149 1440,138" stroke="rgba(129, 129, 129, 1)" stroke-width="2"></path><path d="M -11.650359214820583,75 C 45.95,105.2 161.15,212.6 276.3496407851794,226 C 391.55,239.4 449.15,145.6 564.3496407851794,142 C 679.55,138.4 737.15,223 852.3496407851794,208 C 967.55,193 1025.15,60.6 1140.3496407851794,67 C 1255.55,73.4 1313.15,230.6 1428.3496407851794,240 C 1543.55,249.4 1714.02,130.2 1716.3496407851794,114 C 1718.68,97.8 1495.27,150 1440,159" stroke="rgba(129, 129, 129, 1)" stroke-width="2"></path><path d="M -480.33248036353984,172 C -422.73,152.6 -307.53,78.4 -192.33248036353987,75 C -77.13,71.6 -19.53,156.4 95.66751963646013,155 C 210.87,153.6 268.47,58.8 383.66751963646016,68 C 498.87,77.2 556.47,188.6 671.6675196364602,201 C 786.87,213.4 844.47,130.4 959.6675196364602,130 C 1074.87,129.6 1151.6,197 1247.6675196364602,199 C 1343.73,201 1401.53,151.8 1440,140" stroke="rgba(129, 129, 129, 1)" stroke-width="2"></path><path d="M -201.76672728642413,226 C -144.17,204.4 -28.97,118.4 86.23327271357587,118 C 201.43,117.6 259.03,226 374.23327271357584,224 C 489.43,222 547.03,122 662.2332727135758,108 C 777.43,94 835.03,161.2 950.2332727135758,154 C 1065.43,146.8 1123.03,60.2 1238.2332727135758,72 C 1353.43,83.8 1485.88,206 1526.2332727135758,213 C 1566.59,220 1457.25,128.2 1440,107" stroke="rgba(129, 129, 129, 1)" stroke-width="2"></path></g><defs><mask id="SvgjsMask1053"><rect width="1440" height="300" fill="#ffffff"></rect></mask></defs></svg>